<svg xmlns="http://www.w3.org/2000/svg" xml:space="preserve" width="116" height="35" viewBox="9.834 4.083 116 35"><path fill="#fcfcfc" d="M11.238 38.328V14.552h16.646v4.022H15.77v5.271h11.27v4.006h-11.27v6.471h12.542v4.006zM29.944 38.328V14.552h4.41l9.188 15.878V14.552h4.21v23.776h-4.547l-9.05-15.505v15.505zM94.033 29.587V25.58h9.77v9.47q-1.425 1.46-4.128 2.572-2.703 1.11-5.474 1.11-3.522 0-6.141-1.564-2.618-1.566-3.935-4.477c-1.318-2.91-1.317-4.051-1.317-6.333q0-3.714 1.47-6.6 1.47-2.888 4.302-4.428 2.16-1.185 5.376-1.185 4.18 0 6.53 1.857 2.352 1.858 3.025 5.134l-4.502.892q-.473-1.752-1.784-2.765c-1.311-1.013-1.963-1.014-3.27-1.014q-2.97 0-4.723 1.995c-1.753 1.995-1.754 3.303-1.754 5.92q0 4.231 1.777 6.349c1.776 2.118 2.736 2.116 4.655 2.116q1.424 0 2.856-.592 1.432-.591 2.457-1.435v-3.016zM111.62 38.328V28.321l-8.223-13.769h5.313l5.284 9.407 5.175-9.407h5.222l-8.254 13.802v9.974zM80.656 33.69q-1.624-2.774-2.58-3.86-.958-1.087-2.428-1.995 2.956-.454 4.441-2.198 1.486-1.743 1.486-4.42 0-2.106-.98-3.746-.98-1.637-2.611-2.278-1.632-.64-5.23-.64h-9.54v14.334h3.62l-2.237 7.522h-1.383v1.92h4.533v-9.927h.918q1.562 0 2.282.268t1.363.99 2.389 3.494l3.277 5.174h5.42zM71.1 24.607h-3.353v-6.033h3.537q2.757 0 3.307.081 1.104.194 1.708.933c.604.739.605 1.138.605 1.938q0 1.07-.46 1.784-.46.713-1.27 1.005c-.81.292-1.9.292-4.074.292M38.778 5.815h.758v3.308q0 .864-.196 1.371c-.196.507-.365.614-.705.826s-.785.319-1.338.319q-.804 0-1.316-.278c-.512-.278-.585-.452-.73-.802s-.22-.829-.22-1.436V5.815h.759v3.304q0 .747.138 1.1c.138.353.252.417.477.545s.5.191.826.191q.836 0 1.191-.379c.355-.379.356-.738.356-1.457zM40.843 11.541v-.8h.8v.8zM42.634 9.701l.715-.062q.051.429.236.705c.185.276.316.332.577.445s.553.17.879.17q.434 0 .765-.129c.331-.129.386-.204.494-.353s.162-.313.162-.49q0-.27-.156-.471c-.156-.201-.276-.247-.516-.338q-.23-.09-1.02-.28c-.79-.19-.894-.245-1.105-.357q-.41-.214-.61-.533c-.2-.32-.202-.45-.202-.713q0-.435.246-.81c.246-.376.404-.443.719-.573s.665-.195 1.05-.195q.638 0 1.124.205c.486.205.573.338.748.603s.268.567.281.903l-.727.054q-.059-.542-.396-.82c-.337-.278-.558-.277-.998-.277q-.688 0-1.002.252c-.314.252-.315.37-.315.607q0 .309.223.508.219.2 1.143.408c.924.208 1.038.261 1.267.365q.5.231.739.584c.239.353.238.508.238.815q0 .457-.262.861c-.262.404-.425.48-.752.63s-.695.224-1.103.224q-.778 0-1.303-.227c-.525-.227-.625-.378-.824-.681s-.304-.647-.315-1.03M48.273 11.541v-.8h.801v.8zM52.481 11.541V5.814h1.973q.667 0 1.02.082.492.114.84.41.453.383.677.98c.224.596.225.85.225 1.36q0 .653-.153 1.157c-.153.504-.231.614-.39.834s-.333.393-.522.52-.416.221-.683.286-.574.098-.92.098zm.758-.676h1.223q.566 0 .889-.105c.323-.105.386-.17.513-.297q.27-.27.42-.725c.15-.455.15-.671.15-1.103q0-.9-.294-1.381c-.294-.481-.436-.537-.717-.647q-.305-.117-.98-.117h-1.204zM60.945 10.205l.726.09q-.171.636-.636.988c-.465.352-.706.352-1.188.352q-.91 0-1.443-.56c-.533-.56-.533-.899-.533-1.573q0-1.047.539-1.625c.539-.578.825-.578 1.398-.578q.832 0 1.36.566c.528.566.527.909.527 1.594l-.004.188h-3.094q.039.682.387 1.047c.348.364.52.363.867.363q.387 0 .66-.203c.273-.203.327-.352.434-.649m-2.309-1.137h2.317q-.047-.523-.266-.785a1.08 1.08 0 0 0-.871-.406q-.484 0-.815.324c-.33.324-.341.505-.365.867M62.49 13.13V7.394h.64v.539q.227-.317.512-.475c.285-.158.42-.158.691-.158q.531 0 .938.273c.407.273.475.44.613.772s.207.696.207 1.092q0 .636-.228 1.146c-.228.51-.374.6-.664.781s-.596.272-.916.272q-.352 0-.631-.148c-.28-.149-.34-.225-.46-.376v2.02zm.636-3.64q0 .8.325 1.184c.325.384.478.383.785.383q.468 0 .803-.397c.335-.397.334-.674.334-1.228q0-.794-.327-1.188c-.327-.394-.477-.394-.779-.394q-.45 0-.795.42c-.345.42-.346.687-.346 1.22M69.582 11.03q-.39.33-.752.468c-.362.138-.5.137-.775.137q-.684 0-1.051-.334c-.367-.334-.367-.508-.367-.854q0-.304.138-.556c.138-.252.214-.303.364-.405s.318-.178.506-.23q.207-.055.624-.106.852-.1 1.254-.242l.004-.183q0-.43-.199-.606-.27-.238-.8-.238-.496 0-.733.174c-.237.174-.274.32-.35.615l-.687-.094q.093-.441.308-.713c.215-.272.35-.32.621-.418s.585-.146.942-.146q.531 0 .863.125c.332.125.384.188.488.314s.178.286.22.479q.034.18.034.648v.938q0 .98.045 1.24c.045.26.09.34.178.498h-.734a1.5 1.5 0 0 1-.141-.512m-.059-1.571q-.383.156-1.148.266-.435.062-.613.14c-.178.078-.213.129-.278.229s-.097.211-.097.334q0 .28.213.468c.213.188.35.188.623.188q.405 0 .722-.178c.317-.178.366-.28.465-.486q.114-.238.113-.703zM71.252 11.541V7.393h.633v.629q.242-.442.447-.583c.206-.14.288-.14.452-.14q.355 0 .722.226l-.242.653a1 1 0 0 0-.515-.153q-.231 0-.414.14c-.184.14-.21.22-.262.384a2.7 2.7 0 0 0-.117.82v2.172z"/><path fill="#fcfcfc" d="m75.396 10.912.102.621a2.6 2.6 0 0 1-.532.063q-.384 0-.593-.121-.212-.121-.298-.319c-.086-.198-.086-.408-.086-.83V7.94h-.515v-.546h.515V6.365l.7-.422v1.45h.707v.546h-.707v2.426q0 .3.037.387a.3.3 0 0 0 .121.137q.084.05.24.05.117 0 .309-.027M76.019 11.541V7.393h.629v.582q.195-.305.52-.49c.324-.186.462-.186.738-.186q.461 0 .756.191c.295.191.335.306.416.535q.492-.726 1.28-.726.617 0 .95.342c.333.342.332.578.332 1.052v2.848h-.7V8.928q0-.422-.068-.608c-.068-.186-.127-.223-.248-.299s-.26-.113-.421-.113q-.439 0-.727.291c-.288.291-.289.505-.289.932v2.41h-.703V8.846q0-.47-.172-.703c-.172-.233-.302-.235-.562-.235q-.297 0-.55.157c-.252.157-.288.256-.365.457s-.113.49-.113.867v2.152zM85.46 10.205l.726.09q-.171.636-.637.988c-.466.352-.706.352-1.187.352q-.91 0-1.443-.56c-.533-.56-.534-.899-.534-1.573q0-1.047.54-1.625c.54-.578.825-.578 1.398-.578q.832 0 1.36.566c.527.566.527.909.527 1.594q0 .063-.004.188h-3.094q.039.682.387 1.047c.348.364.52.363.867.363q.386 0 .66-.203c.274-.203.327-.352.434-.649m-2.31-1.137h2.317q-.047-.523-.265-.785a1.08 1.08 0 0 0-.871-.406q-.486 0-.815.324c-.329.324-.342.505-.365.867M87.004 11.541V7.393h.633v.59q.458-.684 1.32-.684.375 0 .69.135c.315.135.366.207.47.353s.177.319.22.52q.039.195.039.683v2.551h-.703V9.018q0-.43-.083-.643c-.082-.213-.15-.255-.29-.34s-.303-.127-.49-.127q-.45 0-.776.285c-.326.285-.326.551-.326 1.082v2.266zM92.924 10.912l.102.621a2.6 2.6 0 0 1-.531.063q-.382 0-.594-.121c-.212-.121-.24-.187-.297-.319s-.086-.408-.086-.83V7.94h-.516v-.546h.516V6.365l.7-.422v1.45h.706v.546h-.707v2.426q0 .3.037.387c.037.087.066.103.121.137s.136.05.24.05q.117 0 .31-.027M95.445 9.467q0-1.153.64-1.707.535-.46 1.305-.461.855 0 1.399.56c.543.56.542.89.542 1.55q0 .8-.24 1.259c-.24.459-.393.544-.699.713s-.64.254-1.002.254q-.871 0-1.408-.559c-.537-.559-.537-.909-.537-1.61m.723 0q0 .797.347 1.193c.347.396.524.397.875.397q.524 0 .871-.399c.347-.399.348-.67.348-1.215q0-.769-.35-1.166c-.35-.397-.522-.396-.869-.396q-.527 0-.875.394c-.348.394-.347.66-.347 1.192M100.26 11.541V7.939h-.62v-.546h.62V6.95q0-.419.074-.62.102-.274.358-.444c.256-.17.41-.17.717-.17q.297 0 .656.07l-.105.613a2.4 2.4 0 0 0-.415-.039q-.32 0-.453.137c-.133.137-.133.262-.133.512v.382h.81v.547h-.81v3.602z"/><path fill="#1b75bb" d="M59.932 21.664H49.37V14.14h13.275z"/><path fill="#faaf40" d="M59.37 29.887H49.368v-7.524h12.163z"/><path fill="#37b34a" d="M61.484 38.12H49.369v-7.522H63.72z"/></svg>