<svg width="66" height="43" viewBox="0 0 66 43" fill="none" xmlns="http://www.w3.org/2000/svg">
<path d="M14.6259 2.10097L14.5426 12.9117C14.5426 17.4048 11.7981 19.1483 8.10213 19.1483C4.91915 19.1483 0.876854 17.7757 0.876854 13.095V2.10097C0.850825 1.57126 0.507579 1.10569 0 0.911621H5.21728C4.72324 1.11432 4.39726 1.57975 4.38427 2.10097V13.1845C4.38427 15.0346 5.03753 17.652 8.57125 17.652C11.8068 17.652 12.9555 15.5888 12.9555 12.9628L12.9117 2.10097C12.9289 1.59914 12.6425 1.13394 12.1795 0.911621H15.3449C14.887 1.1376 14.6063 1.60204 14.6259 2.10097Z" fill="#F2F3F4"/>
<path d="M22.5336 18.2367C20.7432 18.2156 18.9832 17.7843 17.3965 16.9778L17.2627 12.5802C17.7721 14.4266 19.3779 16.8729 22.1623 16.8729C24.8085 16.8729 25.6158 15.0266 25.6158 13.751C25.6158 11.2333 23.289 10.9144 20.8673 9.63871C18.4455 8.36307 17.3318 6.907 17.3318 4.93059C17.3145 1.41839 20.7162 7.89881e-05 23.1509 7.89881e-05C24.5583 -0.00586812 25.9458 0.324094 27.1914 0.961005L27.3253 4.8131C26.9497 3.43256 25.4258 1.35125 22.8573 1.35125C20.8198 1.35125 20.0168 2.73179 20.0168 3.86896C20.0168 5.45512 21.1694 6.05098 23.6862 7.17136C26.2029 8.29174 28.7714 9.15615 28.7714 12.7733C28.7714 16.0253 25.8273 18.2367 22.5336 18.2367Z" fill="#F2F3F4"/>
<path fill-rule="evenodd" clip-rule="evenodd" d="M30.6904 18.2367H37.7738C45.2174 18.2367 48.9125 13.5175 48.9125 8.85016C48.9125 6.25048 47.0939 0 38.0229 0H30.6904C31.1497 0.232972 31.4288 0.703475 31.4063 1.20684V17.0299C31.4202 17.5311 31.1435 17.9975 30.6904 18.2367ZM34.9058 1.39731C35.3193 1.34108 36.7822 1.34108 37.4448 1.34108C43.1498 1.34108 45.0796 5.63206 45.0974 8.8503C45.0974 12.765 43.3543 16.844 37.1291 16.844H34.9058V1.39731Z" fill="#F2F3F4"/>
<path fill-rule="evenodd" clip-rule="evenodd" d="M59.9935 16.9622C60.1885 17.4946 60.0511 17.8552 59.3329 18.2199L65.2163 18.2032C64.5947 17.9805 64.0975 17.5256 63.8418 16.9454C63.3497 15.9602 56.0343 0 56.0343 0C56.0343 0 48.7942 15.9602 48.2843 16.979C47.9914 17.507 47.5434 17.9438 46.9941 18.2367H50.7849C50.0445 17.9265 49.907 17.5617 50.1553 16.9371C50.6027 15.7181 51.1162 14.5216 51.6938 13.3526H58.4284C58.7051 13.9893 58.9754 14.6025 59.2117 15.1385C59.6305 16.0885 59.9425 16.7961 59.9935 16.9622ZM52.2524 11.9818C53.1303 10.0323 55.0012 5.6136 55.0012 5.6136C55.0012 5.6136 56.5042 9.09743 57.7944 11.9818H52.2524Z" fill="#F2F3F4"/>
<path d="M65.2159 20.9895C65.2159 20.9895 24.8798 20.0566 0.958984 31.9143C0.958984 31.9143 26.2887 22.5889 65.2159 23.5219V20.9895Z" fill="#F2F3F4"/>
<path d="M0.958984 20.9723C0.958984 20.9723 14.5692 21.0912 23.0173 23.7078C23.0173 23.7078 5.68673 22.5184 0.958984 23.1131L0.958984 20.9723Z" fill="#F2F3F4"/>
<path d="M0.958984 24.7814C0.958984 24.7814 10.532 24.3346 16.3039 24.9244C16.3039 24.9244 2.36678 26.6399 0.958984 27.3548L0.958984 24.7814Z" fill="#F2F3F4"/>
<path d="M58.5201 25.5638H58.3098C46.5776 25.7828 21.968 27.1441 0.958984 34.268V42.8562H65.2159V25.5638C65.2159 25.5638 62.7201 25.4908 58.5201 25.5638Z" fill="#F2F3F4"/>
</svg>
